HIERARCHY
ROOT Hips
{
	OFFSET 0.000000 0.000000 0.000000
	CHANNELS 6 Xposition Yposition Zposition Xrotation Yrotation Zrotation
	JOINT Chest
	{
		OFFSET 0.000000 0.009282 11.569106
		CHANNELS 3 Xrotation Yrotation Zrotation
		JOINT Chest2
		{
			OFFSET 0.000000 -0.016863 9.269641
			CHANNELS 3 Xrotation Yrotation Zrotation
			JOINT Chest3
			{
				OFFSET 0.000000 0.000000 8.374491
				CHANNELS 3 Xrotation Yrotation Zrotation
				JOINT Chest4
				{
					OFFSET 0.000000 0.000000 8.374493
					CHANNELS 3 Xrotation Yrotation Zrotation
					JOINT Neck
					{
						OFFSET 0.000000 -0.000001 12.152554
						CHANNELS 3 Xrotation Yrotation Zrotation
						JOINT Head
						{
							OFFSET 0.000000 -0.040100 7.802319
							CHANNELS 3 Xrotation Yrotation Zrotation
							End Site
							{
								OFFSET 0.000000 -0.020946 14.853096
							}
						}
					}
					JOINT RightCollar
					{
						OFFSET -2.894404 0.000000 6.791374
						CHANNELS 3 Xrotation Yrotation Zrotation
						JOINT RightShoulder
						{
							OFFSET -13.574684 0.000000 0.000000
							CHANNELS 3 Xrotation Yrotation Zrotation
							JOINT RightElbow
							{
								OFFSET -23.923903 0.000000 0.000000
								CHANNELS 3 Xrotation Yrotation Zrotation
								JOINT RightWrist
								{
									OFFSET -19.846718 -0.012765 0.000000
									CHANNELS 3 Xrotation Yrotation Zrotation
									End Site
									{
										OFFSET -14.973145 0.000000 0.000000
									}
								}
							}
						}
					}
					JOINT LeftCollar
					{
						OFFSET 2.894404 0.000000 6.791374
						CHANNELS 3 Xrotation Yrotation Zrotation
						JOINT LeftShoulder
						{
							OFFSET 13.574684 0.000000 0.000000
							CHANNELS 3 Xrotation Yrotation Zrotation
							JOINT LeftElbow
							{
								OFFSET 23.923903 0.000000 0.000000
								CHANNELS 3 Xrotation Yrotation Zrotation
								JOINT LeftWrist
								{
									OFFSET 19.846718 -0.012765 0.000000
									CHANNELS 3 Xrotation Yrotation Zrotation
									End Site
									{
										OFFSET 14.973145 0.000000 0.000000
									}
								}
							}
						}
					}
				}
			}
		}
	}
	JOINT RightHip
	{
		OFFSET -9.469263 -0.004642 0.045487
		CHANNELS 3 Xrotation Yrotation Zrotation
		JOINT RightKnee
		{
			OFFSET 0.000000 -0.002666 -40.478676
			CHANNELS 3 Xrotation Yrotation Zrotation
			JOINT RightAnkle
			{
				OFFSET 0.000000 -0.049110 -35.224068
				CHANNELS 3 Xrotation Yrotation Zrotation
				JOINT RightToe
				{
					OFFSET 0.000000 -12.539530 -6.151390
					CHANNELS 3 Xrotation Yrotation Zrotation
					End Site
					{
						OFFSET 0.000000 -5.044995 -1.291870
					}
				}
			}
		}
	}
	JOINT LeftHip
	{
		OFFSET 9.469263 -0.004642 0.045487
		CHANNELS 3 Xrotation Yrotation Zrotation
		JOINT LeftKnee
		{
			OFFSET 0.000000 -0.002666 -40.478676
			CHANNELS 3 Xrotation Yrotation Zrotation
			JOINT LeftAnkle
			{
				OFFSET 0.000000 -0.049110 -35.224068
				CHANNELS 3 Xrotation Yrotation Zrotation
				JOINT LeftToe
				{
					OFFSET 0.000000 -12.539530 -6.151390
					CHANNELS 3 Xrotation Yrotation Zrotation
					End Site
					{
						OFFSET 0.000000 -5.044995 -1.291870
					}
				}
			}
		}
	}
}
MOTION
Frames: 15
Frame Time: 0.016667
45.781830 -48.371872 82.905121 0.442872 7.807435 -98.091468 4.360041 1.125309 -0.378256 1.944927 0.472812 -0.054412 1.944928 0.472813 -0.054411 1.458647 0.354787 -0.039303 22.446819 -4.434839 -6.279856 5.306520 -6.405247 -12.726051 -1.157706 -8.503115 -2.475028 26.197612 -42.697374 13.813562 39.083708 -13.966390 52.259300 -45.763825 20.664857 87.404906 -1.662649 6.804331 -3.225565 14.743050 43.641074 -5.783762 60.347064 23.183095 -48.628830 -18.903933 -15.416073 -64.290569 4.569012 -2.476243 -18.765858 5.980792 -1.737941 -8.900751 -4.747141 0.100868 13.162534 0.128353 0.063240 -0.079966 7.094856 4.689586 -10.561970 7.595450 0.416076 3.729682 -5.545756 -3.651518 10.070141 0.010882 0.358378 0.043335 
45.781830 -48.371872 82.905121 0.442872 7.807435 -98.091468 4.360041 1.125309 -0.378256 1.944927 0.472812 -0.054412 1.944928 0.472813 -0.054411 1.458647 0.354787 -0.039303 22.446819 -4.434839 -6.279856 5.306520 -6.405247 -12.726051 -1.157706 -8.503115 -2.475028 26.197612 -42.697374 13.813562 39.083708 -13.966390 52.259300 -45.763825 20.664857 87.404906 -1.662649 6.804331 -3.225565 14.743050 43.641074 -5.783762 60.347064 23.183095 -48.628830 -18.903933 -15.416073 -64.290569 4.569012 -2.476243 -18.765858 5.980792 -1.737941 -8.900751 -4.747141 0.100868 13.162534 0.128353 0.063240 -0.079966 7.094856 4.689586 -10.561970 7.595450 0.416076 3.729682 -5.545756 -3.651518 10.070141 0.010882 0.358378 0.043335 
45.972263 -48.285679 82.883881 0.459958 7.835767 -98.106290 4.387936 1.157167 -0.391709 1.955561 0.479468 -0.050137 1.955561 0.479468 -0.050140 1.466623 0.359766 -0.036069 22.477975 -4.432853 -6.260038 5.364328 -6.409809 -12.687515 -1.198838 -8.516442 -2.501550 26.251234 -42.700775 13.882467 39.095699 -13.964162 52.226488 -45.756766 20.673950 87.416258 -1.687566 6.786493 -3.227798 14.722509 43.603750 -5.792799 60.370758 23.118064 -48.659623 -18.844919 -15.448428 -64.291519 4.392268 -2.490261 -18.723490 6.200528 -1.823094 -8.918478 -4.812312 0.221057 13.179268 0.123664 0.074539 -0.082404 6.629447 4.723910 -10.666360 8.380224 0.357299 3.887546 -5.771364 -3.642687 10.178595 -0.026403 0.399064 0.040026 
46.175381 -48.204205 82.862984 0.465143 7.862449 -98.101201 4.417525 1.194859 -0.420144 1.964990 0.485356 -0.051351 1.964990 0.485355 -0.051346 1.473692 0.364185 -0.036952 22.513422 -4.426783 -6.237285 5.430482 -6.408079 -12.642205 -1.262311 -8.515521 -2.525758 26.288160 -42.720269 13.913669 39.137940 -13.954494 52.197388 -45.727252 20.683759 87.413861 -1.729646 6.788994 -3.221030 14.736400 43.550382 -5.801517 60.405401 23.048864 -48.704303 -18.790294 -15.476056 -64.282797 4.199258 -2.519294 -18.696685 6.403845 -1.888339 -8.878069 -4.853733 0.361590 13.143197 0.115654 0.080752 -0.085195 6.116472 4.769877 -10.782026 9.226129 0.295120 4.089804 -5.969647 -3.604395 10.156718 -0.090650 0.429507 0.035515 
46.399258 -48.114124 82.843460 0.462660 7.871042 -98.083053 4.445060 1.234131 -0.459388 1.973950 0.491508 -0.056795 1.973951 0.491508 -0.056795 1.480408 0.368819 -0.041011 22.545790 -4.418234 -6.209728 5.491151 -6.402818 -12.587549 -1.290038 -8.504416 -2.525222 26.283898 -42.750984 13.929892 39.186264 -13.957258 52.175672 -45.708107 20.695197 87.415193 -1.766355 6.794538 -3.200468 14.742782 43.493057 -5.803443 60.445583 22.989472 -48.765075 -18.723591 -15.509415 -64.259977 4.006774 -2.545800 -18.720432 6.551027 -1.967104 -8.751386 -4.857592 0.538721 13.054393 0.106447 0.075028 -0.083724 5.523989 4.829546 -10.892018 10.155225 0.232673 4.320989 -6.125017 -3.544256 10.174683 -0.190716 0.455254 0.031168 
46.642540 -48.032383 82.828087 0.423772 7.857086 -98.049640 4.474942 1.309970 -0.501507 1.983325 0.500382 -0.062179 1.983325 0.500382 -0.062178 1.487434 0.375494 -0.045009 22.566156 -4.413010 -6.179242 5.529131 -6.403322 -12.529188 -1.323198 -8.499516 -2.532810 26.318696 -42.782126 13.971254 39.202779 -13.974794 52.161192 -45.691787 20.704605 87.415165 -1.786508 6.786206 -3.194691 14.710911 43.440532 -5.781983 60.487370 22.944646 -48.833513 -18.642979 -15.545345 -64.225853 3.809157 -2.540516 -18.767304 6.614134 -2.062535 -8.482907 -4.776005 0.758811 12.927301 0.082236 0.064226 -0.080983 4.836457 4.917920 -11.006475 11.183031 0.186843 4.565625 -6.234940 -3.485609 10.116563 -0.321505 0.494632 0.022874 
46.903446 -47.955883 82.820358 0.373626 7.808244 -97.985354 4.499050 1.390320 -0.555606 1.989592 0.510309 -0.071029 1.989594 0.510309 -0.071030 1.492128 0.382968 -0.051612 22.574253 -4.409195 -6.148499 5.544187 -6.405350 -12.471410 -1.345604 -8.496778 -2.541327 26.366234 -42.817787 14.019152 39.195761 -14.009957 52.151305 -45.671740 20.711896 87.412160 -1.799176 6.780941 -3.199747 14.668453 43.386250 -5.749561 60.527238 22.905883 -48.900661 -18.551656 -15.578936 -64.200718 3.589106 -2.548024 -18.813722 6.617188 -2.150865 -8.231399 -4.660792 0.991584 12.714716 0.065077 0.050818 -0.081540 4.040129 5.026425 -11.162582 12.297896 0.140121 4.854365 -6.203320 -3.451095 9.960946 -0.532029 0.575973 0.015512 
47.180759 -47.891434 82.824059 0.270107 7.740466 -97.883120 4.517015 1.517482 -0.621288 1.992144 0.520617 -0.084132 1.992144 0.520617 -0.084128 1.494027 0.390742 -0.061404 22.575044 -4.402752 -6.117622 5.545963 -6.401953 -12.413060 -1.374308 -8.498283 -2.553902 26.414215 -42.863255 14.050332 39.191738 -14.038632 52.136828 -45.650061 20.712969 87.406662 -1.805334 6.772868 -3.197922 14.660391 43.338537 -5.749012 60.564626 22.859458 -48.966511 -18.482728 -15.593156 -64.189483 3.355885 -2.518486 -18.844337 6.553955 -2.220205 -8.131444 -4.483427 1.207556 12.543521 0.034539 0.039943 -0.082469 3.121458 5.238515 -11.397591 13.558210 0.055367 5.151902 -6.018282 -3.447877 9.935901 -0.821456 0.709511 0.010536 
47.467499 -47.842403 82.840546 0.152814 7.684818 -97.763168 4.541816 1.656598 -0.692262 1.997385 0.530497 -0.100665 1.997385 0.530497 -0.100663 1.497941 0.398207 -0.073762 22.572903 -4.389962 -6.085756 5.542958 -6.386982 -12.351221 -1.381888 -8.491967 -2.561230 26.426359 -42.921179 14.057276 39.204487 -14.057994 52.127621 -45.611296 20.720974 87.395494 -1.793356 6.772265 -3.187800 14.664776 43.289882 -5.763816 60.608353 22.812369 -49.027993 -18.433130 -15.595709 -64.213381 3.136080 -2.454525 -18.881979 6.481955 -2.302641 -8.229612 -4.289741 1.369122 12.575644 0.003086 0.058896 -0.085247 2.091359 5.519056 -11.722369 15.010529 -0.078481 5.455704 -5.592353 -3.464129 9.838109 -1.257816 0.908019 0.008570 
47.750301 -47.797966 82.868706 0.005920 7.643824 -97.641700 4.583295 1.829927 -0.757899 2.008447 0.536749 -0.114578 2.008447 0.536749 -0.114573 1.506225 0.402944 -0.084165 22.564539 -4.373874 -6.057169 5.528750 -6.364553 -12.294826 -1.383396 -8.474711 -2.560858 26.407215 -42.981595 14.042643 39.242545 -14.091158 52.143368 -45.567197 20.732436 87.381943 -1.790513 6.785183 -3.163366 14.696245 43.221307 -5.803405 60.659149 22.779874 -49.105389 -18.391253 -15.608391 -64.252887 2.945844 -2.372100 -18.946065 6.360765 -2.354487 -8.317852 -4.048177 1.477934 12.612966 -0.042247 0.105343 -0.090246 0.931932 5.929687 -12.112319 16.726525 -0.304173 5.897218 -4.976044 -3.475903 9.597951 -1.805385 1.158627 0.019629 
48.234123 -47.803093 82.878983 -0.480509 6.608404 -96.640306 3.648202 2.162929 -1.673645 2.017316 0.540729 -0.124809 2.017316 0.540729 -0.124807 1.512865 0.405963 -0.091820 22.554178 -4.358981 -6.028641 5.510739 -6.344136 -12.238970 -1.347571 -8.450249 -2.545231 26.370307 -43.041103 14.036424 39.289888 -14.141579 52.196128 -45.538008 20.756889 87.370755 -1.769891 6.792572 -3.142681 14.720721 43.146708 -5.824399 60.708463 22.738094 -49.214511 -18.339454 -15.629734 -64.264150 1.673493 -2.089561 -19.882293 6.212123 -2.422495 -8.265794 -3.870485 1.566195 12.527566 0.034726 0.155309 -0.086160 -1.352218 6.477342 -13.379503 18.200226 -0.542618 6.503196 -3.844185 -3.210273 8.823192 -2.287903 1.194735 0.507204 
48.649921 -47.767258 82.915276 -0.768959 5.961492 -96.061536 3.145155 2.399398 -2.188572 2.023226 0.542357 -0.129625 2.023226 0.542356 -0.129619 1.517294 0.407202 -0.095419 22.540437 -4.344071 -6.000046 5.486419 -6.323402 -12.183169 -1.312610 -8.416285 -2.528864 26.400464 -43.085612 14.087046 39.306707 -14.224403 52.271441 -45.500248 20.790187 87.347854 -1.748047 6.788942 -3.122185 14.723183 43.072768 -5.817468 60.758535 22.700356 -49.346447 -18.262681 -15.671927 -64.238100 0.839922 -1.937743 -20.390439 6.044866 -2.488421 -8.222903 -3.637542 1.659785 12.450869 0.055757 0.211468 -0.090907 -3.362599 6.982326 -14.245276 20.067463 -0.714162 7.154029 -2.649297 -3.153872 8.152691 -4.458825 2.034517 0.853598 
49.079498 -47.735985 82.962662 -1.012511 5.328028 -95.545419 2.687455 2.616058 -2.653634 2.034317 0.544475 -0.124151 2.034318 0.544475 -0.124150 1.525616 0.408775 -0.091301 22.517406 -4.338249 -5.974547 5.443952 -6.317652 -12.136118 -1.323666 -8.401323 -2.529356 26.491818 -43.097097 14.170526 39.312305 -14.332348 52.367060 -45.472910 20.825366 87.320191 -1.754543 6.768417 -3.121217 14.681124 43.007212 -5.757744 60.819816 22.663152 -49.488706 -18.183900 -15.713615 -64.173247 -0.006043 -1.808713 -20.843000 5.908082 -2.544229 -8.244296 -3.384468 1.744830 12.419408 0.053925 0.263638 -0.103730 -5.413828 7.512074 -15.003223 21.967649 -0.843920 7.685868 -1.162134 -3.260969 7.675258 -6.757068 2.935769 1.178824 
49.514881 -47.712250 83.012833 -1.206730 4.730808 -95.090433 2.268715 2.803075 -3.077424 2.045618 0.544413 -0.115351 2.045618 0.544413 -0.115347 1.534100 0.408701 -0.084690 22.496405 -4.333209 -5.947222 5.405172 -6.314005 -12.085834 -1.318140 -8.388391 -2.526013 26.597163 -43.082777 14.275003 39.323714 -14.459420 52.477361 -45.454503 20.861240 87.301292 -1.751441 6.750737 -3.124545 14.589581 42.975386 -5.639918 60.870031 22.622958 -49.602289 -18.112682 -15.744305 -64.104863 -0.820587 -1.709694 -21.267623 5.776787 -2.580220 -8.302930 -3.129680 1.819329 12.485126 0.056060 0.300257 -0.111183 -7.417989 8.051369 -15.589734 23.807690 -0.982302 8.107712 0.533359 -3.593666 7.252103 -9.098703 3.958752 1.484155 
49.932590 -47.664749 83.060463 -1.286801 4.232497 -94.748569 1.947644 2.895458 -3.409856 2.060430 0.542941 -0.102932 2.060432 0.542941 -0.102930 1.545221 0.407558 -0.075367 22.476298 -4.330523 -5.919912 5.367797 -6.314748 -12.036207 -1.298404 -8.375811 -2.530668 26.684958 -43.051140 14.384127 39.344089 -14.586436 52.596671 -45.443349 20.891894 87.295200 -1.765363 6.746067 -3.114176 14.513580 42.967019 -5.518013 60.881547 22.595330 -49.673203 -18.044762 -15.756316 -64.086518 -1.514568 -1.733106 -21.662529 5.621158 -2.587096 -8.323609 -2.816823 1.904701 12.654512 0.008799 0.330194 -0.122979 -9.246243 8.497309 -15.925493 25.491110 -1.135768 8.401309 2.353511 -4.172597 7.013847 -11.394499 5.131364 1.828133 
